<svg viewBox="0 0 48 48" fill="current" xmlns="http://www.w3.org/2000/svg">
<circle cx="24" cy="24" r="23.25" stroke="black" stroke-width="1.5" fill="white"/>
<path d="M32 21.0001H16V22.1112H32V21.0001Z" fill="current"/>
<path d="M32 18.7777H16V20.4444H32V18.7777Z" fill="current"/>
<path d="M32 22.6667H16V23.7694L21.4555 28.0583L21 39.7567C21 40.5284 21.5695 41 22.1315 41H26.1845C26.7465 41 26.9995 40.5284 26.9995 39.7567L26.5495 28.1933L32 23.7694V22.6667ZM24 39.5418C23.482 39.5418 23.0625 39.0756 23.0625 38.5001C23.0625 37.9245 23.482 37.4584 24 37.4584C24.518 37.4584 24.9375 37.9245 24.9375 38.5001C24.9375 39.0756 24.518 39.5418 24 39.5418Z" fill="current"/>
<path d="M32 11H25.171L24.4729 14.8422L23.8825 11H19.3175L18.7265 14.5512L18.0284 11H16V17.6667H32V11Z" fill="current"/>
</svg>
