<svg viewBox="0 0 48 48" fill="current" xmlns="http://www.w3.org/2000/svg">
<path d="M27.9924 24.0004L47.172 4.82038C48.276 3.71639 48.276 1.93198 47.172 0.82799C46.0681 -0.275997 44.2837 -0.275997 43.1797 0.82799L24 20.008L4.8203 0.82799C3.71633 -0.275997 1.93194 -0.275997 0.827976 0.82799C-0.275992 1.93198 -0.275992 3.71639 0.827976 4.82038L20.0076 24.0004L0.827976 43.1804C-0.275992 44.2844 -0.275992 46.0688 0.827976 47.1728C1.37855 47.7234 2.10134 48 2.82414 48C3.54693 48 4.26972 47.7233 4.8203 47.1728L24 27.9928L43.1796 47.1728C43.7302 47.7234 44.453 48 45.1758 48C45.8986 48 46.6214 47.7233 47.1719 47.1728C48.2759 46.0688 48.2759 44.2844 47.1719 43.1804L27.9924 24.0004Z" fill="current"/>
</svg>
