<svg viewBox="0 0 48 48" fill="current" xmlns="http://www.w3.org/2000/svg">
<path d="M40.875 5.625H33.8438V4.21875C33.8438 1.89253 31.9512 0 29.625 0H18.375C16.0488 0 14.1562 1.89253 14.1562 4.21875V5.625H7.125C4.79878 5.625 2.90625 7.51753 2.90625 9.84375C2.90625 11.712 4.12734 13.2995 5.81297 13.8526L8.32125 44.1315C8.50191 46.3008 10.3486 48 12.5254 48H35.4746C37.6515 48 39.4982 46.3008 39.6789 44.1308L42.187 13.8525C43.8727 13.2995 45.0938 11.712 45.0938 9.84375C45.0938 7.51753 43.2012 5.625 40.875 5.625ZM16.9688 4.21875C16.9688 3.44334 17.5996 2.8125 18.375 2.8125H29.625C30.4004 2.8125 31.0312 3.44334 31.0312 4.21875V5.625H16.9688V4.21875ZM36.876 43.8981C36.8157 44.6211 36.2002 45.1875 35.4746 45.1875H12.5254C11.7998 45.1875 11.1843 44.6211 11.1242 43.8987L8.65256 14.0625H39.3474L36.876 43.8981ZM40.875 11.25H7.125C6.34959 11.25 5.71875 10.6192 5.71875 9.84375C5.71875 9.06834 6.34959 8.4375 7.125 8.4375H40.875C41.6504 8.4375 42.2812 9.06834 42.2812 9.84375C42.2812 10.6192 41.6504 11.25 40.875 11.25Z" fill="current"/>
<path d="M18.3724 40.8818L16.9661 18.1943C16.918 17.4191 16.2471 16.8295 15.4756 16.8778C14.7004 16.9259 14.111 17.5932 14.159 18.3683L15.5652 41.0559C15.6115 41.8015 16.2306 42.3751 16.9675 42.3751C17.7819 42.3751 18.4224 41.6893 18.3724 40.8818Z" fill="current"/>
<path d="M24 16.875C23.2234 16.875 22.5938 17.5046 22.5938 18.2812V40.9688C22.5938 41.7454 23.2234 42.375 24 42.375C24.7766 42.375 25.4062 41.7454 25.4062 40.9688V18.2812C25.4062 17.5046 24.7766 16.875 24 16.875Z" fill="current"/>
<path d="M32.5245 16.8777C31.7511 16.8297 31.082 17.4191 31.034 18.1943L29.6277 40.8818C29.5798 41.6569 30.1692 42.3242 30.9443 42.3723C31.7199 42.4203 32.3869 41.8306 32.4349 41.0558L33.8411 18.3683C33.8891 17.5931 33.2997 16.9257 32.5245 16.8777Z" fill="current"/>
</svg>
