<svg width="45" height="45" viewBox="0 0 45 45" fill="none" xmlns="http://www.w3.org/2000/svg">
<path fill-rule="evenodd" clip-rule="evenodd" d="M0 45H45V0H0V45ZM30.0654 20.4968L35.866 26.2974L41.6667 32.0981V22.3891L34.9196 15.6426L30.0654 20.4968ZM41.6667 3.33333H3.33333V21.6815L17.2917 7.72313L27.7083 18.1398L34.9199 10.9281L41.6667 17.675V3.33333ZM17.2917 12.4375L3.33333 26.3958V41.6667H41.6667V36.8125L17.2917 12.4375Z" fill="white"/>
<path d="M3.33333 26.3958L17.2917 12.4375L41.6667 36.8125V41.6667H3.33333V26.3958Z" fill="#314D4B"/>
<path d="M30.0654 20.4968L34.9196 15.6426L41.6667 22.3891V32.0981L35.866 26.2974L30.0654 20.4968Z" fill="#205855"/>
<path d="M3.33333 3.33333H41.6667V17.675L34.9199 10.9281L27.7083 18.1398L17.2917 7.72313L3.33333 21.6815V3.33333Z" fill="#839AAB"/>
</svg>
