<svg width="45" height="49" viewBox="0 0 45 49" fill="none" xmlns="http://www.w3.org/2000/svg">
<g clip-path="url(#clip0_4_1606)">
<path d="M41.2207 11.3672H31.5858L26.9067 6.06806C27.1454 5.51522 27.2793 4.89581 27.2793 4.24219C27.2793 1.91597 25.5839 0.0234375 23.5 0.0234375C21.4161 0.0234375 19.7207 1.91597 19.7207 4.24219C19.7207 4.89591 19.8546 5.51531 20.0933 6.06816L15.4143 11.3672H5.7793C3.69682 11.3672 2 13.2617 2 15.5859V43.8047C2 46.1302 3.69808 48.0234 5.7793 48.0234H41.2207C43.3048 48.0234 45 46.127 45 43.8047V15.5859C45 13.2595 43.3012 11.3672 41.2207 11.3672ZM23.5 2.83594C24.1946 2.83594 24.7598 3.46678 24.7598 4.24219C24.7598 5.01759 24.1946 5.64844 23.5 5.64844C22.8054 5.64844 22.2402 5.01759 22.2402 4.24219C22.2402 3.46678 22.8054 2.83594 23.5 2.83594ZM21.8789 8.05237C22.3705 8.31403 22.9201 8.46094 23.5 8.46094C24.0799 8.46094 24.6295 8.31403 25.1211 8.05237L28.048 11.3672H18.952L21.8789 8.05237ZM40.6989 14.1797L38.1794 16.9922H8.82062L6.30109 14.1797H40.6989ZM33.5781 31.1484C30.9439 31.1484 28.4467 32.1451 26.4318 33.9778C22.3248 30.2588 17.2789 28.3359 12.1621 28.3359C11.2948 28.3359 10.4144 28.3898 9.55859 28.4937V19.8047H37.4414V31.8818C36.2119 31.404 34.89 31.1484 33.5781 31.1484ZM37.4414 34.9124V39.5859H31.0192C30.2259 38.2635 29.3221 37.028 28.3244 35.8965C29.8354 34.6403 31.6601 33.9609 33.5781 33.9609C34.9162 33.9609 36.2627 34.2962 37.4414 34.9124ZM27.9008 39.5859H9.55859V31.3257C10.4078 31.2098 11.2912 31.1484 12.1621 31.1484C18.4068 31.1484 24.1197 34.2976 27.9008 39.5859ZM4.51953 43.2222V16.1684L7.03906 18.9809V40.4097L4.51953 43.2222ZM6.30109 45.2109L8.82062 42.3984C9.70464 42.3984 37.4418 42.3984 38.1794 42.3984L40.6989 45.2109H6.30109ZM42.4805 43.2221L39.9609 40.4097V18.9809L42.4805 16.1684V43.2221Z" fill="white"/>
<path d="M40.6989 14.1797L38.1794 16.9922H8.82062L6.30109 14.1797H40.6989Z" fill="#6B4D38"/>
<path d="M4.51953 43.2222V16.1684L7.03906 18.9809V40.4097L4.51953 43.2222Z" fill="#6B4D38"/>
<path d="M6.30109 45.2109L8.82062 42.3984H38.1794L40.6989 45.2109H6.30109Z" fill="#6B4D38"/>
<path d="M42.4805 43.2221L39.9609 40.4097V18.9809L42.4805 16.1684V43.2221Z" fill="#6B4D38"/>
<path d="M27.9008 39.5859H9.55859V31.3257C10.4078 31.2098 11.2912 31.1484 12.1621 31.1484C18.4068 31.1484 24.1197 34.2976 27.9008 39.5859Z" fill="#264525"/>
<path d="M37.4414 34.9124V39.5859H31.0192C30.2259 38.2635 29.3221 37.028 28.3244 35.8965C29.8354 34.6403 31.6601 33.9609 33.5781 33.9609C34.9162 33.9609 36.2627 34.2962 37.4414 34.9124Z" fill="#264525"/>
<path d="M33.5781 31.1484C30.9439 31.1484 28.4467 32.1451 26.4318 33.9778C22.3248 30.2588 17.2789 28.3359 12.1621 28.3359C11.2948 28.3359 10.4144 28.3898 9.55859 28.4937V19.8047H37.4414V31.8818C36.2119 31.404 34.89 31.1484 33.5781 31.1484Z" fill="#7FA8AD"/>
<path d="M23.5 2.83594C24.1946 2.83594 24.7598 3.46678 24.7598 4.24219C24.7598 5.01759 24.1946 5.64844 23.5 5.64844C22.8054 5.64844 22.2402 5.01759 22.2402 4.24219C22.2402 3.46678 22.8054 2.83594 23.5 2.83594Z" fill="#C79D7E"/>
<path d="M26.0195 22.7109C23.9356 22.7109 22.2402 24.6035 22.2402 26.9297C22.2402 29.2559 23.9356 31.1484 26.0195 31.1484C28.1034 31.1484 29.7988 29.2559 29.7988 26.9297C29.7988 24.6035 28.1034 22.7109 26.0195 22.7109ZM26.0195 28.3359C25.3249 28.3359 24.7598 27.7051 24.7598 26.9297C24.7598 26.1543 25.3249 25.5234 26.0195 25.5234C26.7142 25.5234 27.2793 26.1543 27.2793 26.9297C27.2793 27.7051 26.7142 28.3359 26.0195 28.3359Z" fill="#C62424"/>
<path d="M26.0195 28.3359C25.3249 28.3359 24.7598 27.7051 24.7598 26.9297C24.7598 26.1543 25.3249 25.5234 26.0195 25.5234C26.7142 25.5234 27.2793 26.1543 27.2793 26.9297C27.2793 27.7051 26.7142 28.3359 26.0195 28.3359Z" fill="#C62424"/>
</g>
<defs>
<clipPath id="clip0_4_1606">
<rect width="43" height="48" fill="white" transform="translate(2 0.0234375)"/>
</clipPath>
</defs>
</svg>
