<svg viewBox="0 0 50 45" fill="none" xmlns="http://www.w3.org/2000/svg">
<path d="M25 44.4839C24.2881 44.4839 23.6019 44.2261 23.067 43.7576C21.0472 41.9914 19.0998 40.3316 17.3816 38.8676L17.3729 38.8599C12.3356 34.5673 7.98567 30.8601 4.9591 27.2083C1.57585 23.1258 0 19.2551 0 15.0265C0 10.918 1.40876 7.12776 3.96651 4.35333C6.55478 1.5461 10.1063 0 13.9679 0C16.8541 0 19.4973 0.912476 21.8238 2.71187C22.998 3.62015 24.0623 4.73175 25 6.02837C25.938 4.73175 27.0019 3.62015 28.1764 2.71187C30.503 0.912476 33.1462 0 36.0324 0C39.8936 0 43.4455 1.5461 46.0338 4.35333C48.5915 7.12776 49.9999 10.918 49.9999 15.0265C49.9999 19.2551 48.4244 23.1258 45.0412 27.2079C42.0146 30.8601 37.6651 34.5669 32.6286 38.8592C30.9074 40.3255 28.9569 41.988 26.9325 43.7584C26.398 44.2261 25.7114 44.4839 25 44.4839ZM13.9679 2.92892C10.934 2.92892 8.14703 4.13971 6.11953 6.3385C4.06188 8.57048 2.92854 11.6558 2.92854 15.0265C2.92854 18.5829 4.25033 21.7636 7.21396 25.3395C10.0778 28.7953 14.3374 32.4254 19.2693 36.6285L19.2722 36.631L19.2814 36.6386C21.006 38.1084 22.961 39.7747 24.9958 41.5539C27.0427 39.7713 29.0008 38.1023 30.7289 36.6302C30.7333 36.6264 30.7378 36.6227 30.7422 36.6189C35.6693 32.4195 39.9245 28.7929 42.7863 25.3395C45.7496 21.7636 47.0714 18.5829 47.0714 15.0265C47.0714 11.6558 45.938 8.57048 43.8804 6.3385C41.8533 4.13971 39.0659 2.92892 36.0324 2.92892C33.81 2.92892 31.7695 3.63541 29.9678 5.02853C28.3622 6.2706 27.2438 7.84073 26.588 8.93936C26.2508 9.50432 25.6572 9.84154 25 9.84154C24.3427 9.84154 23.7491 9.50432 23.4119 8.93936C22.7565 7.84073 21.6381 6.2706 20.0321 5.02853C18.2304 3.63541 16.1899 2.92892 13.9679 2.92892Z" fill="white"/>
<path d="M13.9679 2.92892C10.934 2.92892 8.14703 4.13971 6.11953 6.3385C4.06188 8.57048 2.92854 11.6558 2.92854 15.0265C2.92854 18.5829 4.25033 21.7636 7.21396 25.3395C10.0778 28.7953 14.3374 32.4254 19.2693 36.6285L19.2722 36.631L19.2814 36.6386C21.006 38.1084 22.961 39.7747 24.9958 41.5539C27.0427 39.7713 29.0008 38.1023 30.7289 36.6302L30.7422 36.6189C35.6693 32.4195 39.9245 28.7929 42.7863 25.3395C45.7496 21.7636 47.0714 18.5829 47.0714 15.0265C47.0714 11.6558 45.938 8.57048 43.8804 6.3385C41.8533 4.13971 39.0659 2.92892 36.0324 2.92892C33.81 2.92892 31.7695 3.63541 29.9678 5.02853C28.3622 6.2706 27.2438 7.84073 26.588 8.93936C26.2508 9.50432 25.6572 9.84154 25 9.84154C24.3427 9.84154 23.7491 9.50432 23.4119 8.93936C22.7565 7.84073 21.6381 6.2706 20.0321 5.02853C18.2304 3.63541 16.1899 2.92892 13.9679 2.92892Z" fill="#BB2649"/>
</svg>
