<svg viewBox="0 0 64 22" fill="current" xmlns="http://www.w3.org/2000/svg">
<path d="M18.763 0C19.2859 0 19.8088 0.102661 20.2217 0.322643C21.0198 0.747942 21.0198 1.45188 20.2217 1.87718L4.97456 10.0018L20.2217 18.1265C21.0198 18.5518 21.0198 19.2557 20.2217 19.681C19.4235 20.1063 18.1025 20.1063 17.3043 19.681L0.598593 10.7791C-0.199539 10.3538 -0.199539 9.64988 0.598593 9.22458L17.3043 0.322643C17.7172 0.102661 18.2401 0 18.763 0Z" fill="white"/>
<path d="M4.74212 8.90095L92.1067 8.90095C94.2351 8.90095 96 9.39953 96 10.0008C96 10.602 94.2351 11.1006 92.1067 11.1006L4.74212 11.1006C2.61381 11.1006 0.848869 10.602 0.848869 10.0008C0.848869 9.39953 2.61381 8.90095 4.74212 8.90095Z" fill="white"/>
</svg>
