<svg viewBox="0 0 78 64" fill="current" xmlns="http://www.w3.org/2000/svg">
<path fill-rule="evenodd" clip-rule="evenodd" d="M64.5039 44C59.8746 54.5954 49.3021 62 37.0002 62C24.6983 62 14.1258 54.5954 9.49645 44H7.32625C12.0734 55.7273 23.5707 64 37.0002 64C50.4297 64 61.927 55.7273 66.6741 44H64.5039ZM8.37359 23C12.1964 10.8287 23.5673 2 37.0002 2C50.4331 2 61.804 10.8287 65.6268 23H67.7172C63.8292 9.70841 51.5484 0 37.0002 0C22.4519 0 10.1712 9.70841 6.28319 23H8.37359Z" fill="current"/>
<path d="M14.112 25.392V28.392L12.744 26.76H5.88V32.328H11.376V33.696H5.88V42.024H1.968V26.76L0.84 25.392H14.112ZM31.6238 25.416L25.3118 33.816V42.024H21.3997V34.848L16.2638 26.784L14.7038 25.416H19.3118L24.1838 33.096L29.9678 25.416H31.6238ZM38.0156 29.016C38.0156 29.304 37.9596 29.576 37.8476 29.832C37.7516 30.072 37.6076 30.288 37.4156 30.48C37.2396 30.656 37.0236 30.8 36.7676 30.912C36.5276 31.024 36.2636 31.08 35.9756 31.08C35.6876 31.08 35.4156 31.024 35.1596 30.912C34.9196 30.8 34.7036 30.656 34.5116 30.48C34.3356 30.288 34.1916 30.072 34.0796 29.832C33.9676 29.576 33.9116 29.304 33.9116 29.016C33.9116 28.728 33.9676 28.464 34.0796 28.224C34.1916 27.968 34.3356 27.752 34.5116 27.576C34.7036 27.384 34.9196 27.24 35.1596 27.144C35.4156 27.032 35.6876 26.976 35.9756 26.976C36.5356 26.976 37.0156 27.176 37.4156 27.576C37.8156 27.976 38.0156 28.456 38.0156 29.016ZM38.0156 36.96C38.0156 37.248 37.9596 37.52 37.8476 37.776C37.7516 38.016 37.6076 38.232 37.4156 38.424C37.2396 38.6 37.0236 38.744 36.7676 38.856C36.5276 38.968 36.2636 39.024 35.9756 39.024C35.6876 39.024 35.4156 38.968 35.1596 38.856C34.9196 38.744 34.7036 38.6 34.5116 38.424C34.3356 38.232 34.1916 38.016 34.0796 37.776C33.9676 37.52 33.9116 37.248 33.9116 36.96C33.9116 36.672 33.9676 36.408 34.0796 36.168C34.1916 35.912 34.3356 35.696 34.5116 35.52C34.7036 35.328 34.9196 35.184 35.1596 35.088C35.4156 34.976 35.6876 34.92 35.9756 34.92C36.5356 34.92 37.0156 35.12 37.4156 35.52C37.8156 35.92 38.0156 36.4 38.0156 36.96ZM54.0653 34.872C54.0653 36.024 53.9133 37.048 53.6093 37.944C53.3213 38.824 52.9213 39.568 52.4093 40.176C51.8973 40.784 51.2973 41.248 50.6093 41.568C49.9373 41.888 49.2173 42.048 48.4493 42.048C47.3933 42.048 46.3933 41.888 45.4492 41.568C44.5213 41.248 43.7053 40.784 43.0013 40.176C42.3133 39.568 41.7693 38.824 41.3693 37.944C40.9693 37.048 40.7693 36.024 40.7693 34.872V26.784L39.7373 25.416H44.3693V34.872C44.3693 35.832 44.4733 36.672 44.6813 37.392C44.9053 38.112 45.2013 38.712 45.5693 39.192C45.9373 39.672 46.3693 40.04 46.8653 40.296C47.3613 40.536 47.8893 40.656 48.4493 40.656C49.0093 40.656 49.5293 40.536 50.0093 40.296C50.5053 40.04 50.9373 39.672 51.3053 39.192C51.6733 38.712 51.9613 38.112 52.1693 37.392C52.3932 36.672 52.5052 35.832 52.5052 34.872V26.736L51.4733 25.416H54.0653V34.872ZM71.2926 27.168L65.7726 42H64.4046V41.976L58.9086 27.672L58.8846 40.656V42.024H57.5166V26.76L56.3886 25.392H61.9326L66.6366 35.952L70.5486 25.392H70.5966V25.368H75.1806V42.024H71.2926V27.168Z" fill="current"/>
</svg>
