<svg viewBox="0 0 48 48" fill="current" xmlns="http://www.w3.org/2000/svg">
<circle cx="24" cy="24" r="23.25" stroke="black" stroke-width="1.5" fill="white"/>
<path d="M21.4081 25.5386C21.6853 25.2613 21.6985 24.7797 21.4081 24.4569C21.1082 24.1869 20.6563 24.1601 20.3267 24.4569C20.022 24.7617 20.022 25.2492 20.3267 25.5386C20.6161 25.8281 21.1187 25.8281 21.4081 25.5386Z" fill="current"/>
<path d="M14.935 33.0795C17.4937 35.6391 20.479 36.9999 22.9314 36.9999C24.2412 36.9999 25.3989 36.6646 26.2518 35.8268L27.8663 34.1612C27.8054 33.8261 27.7596 33.491 27.7596 33.1406V28.7378C24.6068 25.1425 24.1347 25.5844 21.2102 21.5624C21.2102 21.6235 19.0169 18.1651 19.3216 14.6918L14.1582 19.8561C14.28 20.8921 14.7217 21.8518 15.4223 22.6288C16.2753 23.5734 17.4633 24.1523 18.7275 24.2283C18.8189 23.9238 19.0016 23.6343 19.2452 23.3904C20.144 22.4917 21.5911 22.4917 22.4744 23.3904C23.373 24.2741 23.373 25.7215 22.4744 26.6203C21.6208 27.474 20.2113 27.553 19.2452 26.6203C19.0016 26.3613 18.8189 26.0717 18.7275 25.7518C17.0368 25.6604 15.4374 24.914 14.295 23.6496C13.625 22.9182 13.1529 22.0651 12.8785 21.1358L12.2543 21.7756C9.83224 24.1827 11.0204 29.1491 14.935 33.0795Z" fill="current"/>
<path d="M34.7153 20.1915H22.1851C22.8095 21.2882 23.6321 22.3852 24.6527 23.4058C24.7745 23.5278 27.8511 26.5136 28.9173 27.7629C29.1611 28.0371 29.2829 28.3875 29.2829 28.7379V33.1407C29.2829 35.243 31.0904 37 33.1923 37C35.2942 37 37.0001 35.243 37.0001 33.1407V22.4767C37.0001 21.2121 35.9795 20.1915 34.7153 20.1915ZM33.9538 33.9023H32.4308V27.8086H33.9538V33.9023Z" fill="current"/>
<path d="M21.461 18.6679H34.7151C35.2445 18.6679 35.7484 18.7776 36.2068 18.9736C34.5768 15.0343 30.5409 12.0991 27.0588 11.248C25.2678 10.8192 23.425 10.8452 22.1239 12.1467C20.6177 13.6532 20.4231 16.0382 21.461 18.6679Z" fill="current"/>
<path d="M14.1583 18.7593C14.3866 16.4893 16.2449 14.585 18.6971 14.1279L19.4283 13.9908C19.5348 13.4272 19.7177 12.8635 19.9918 12.3304L18.4077 12.6349C15.3005 13.2139 12.9245 15.6818 12.6503 18.6069C12.5994 19.3715 12.6053 20.26 12.8787 21.1357L14.1583 19.856C14.1278 19.4904 14.1278 19.1249 14.1583 18.7593Z" fill="current"/>
</svg>
