<svg  viewBox="0 0 48 48" fill="current" xmlns="http://www.w3.org/2000/svg">
<circle cx="24" cy="24" r="23.25" stroke="black" stroke-width="1.5" fill="white"/>
<path d="M36.9953 22.3196C36.8183 16.76 31.7982 11 23.9586 11C20.2542 11 16.8689 12.4753 14.4263 15.1368C11.954 17.8311 10.7225 21.4262 11.0528 25.2594C11.6175 31.8143 17.1985 37 23.6937 37H23.719C25.8067 36.9952 26.7226 34.9515 25.5507 33.4659C24.6527 32.327 24.9035 31.481 25.1706 30.9812C25.6237 30.1339 26.3327 29.7381 27.4033 29.7359C28.3544 29.7359 29.3333 29.7501 30.2708 29.6898C34.397 29.4272 37.1292 26.5343 36.9953 22.3196ZM14.0886 20.9985C14.0886 19.7384 15.1138 18.7134 16.3742 18.7134C17.6345 18.7134 18.6598 19.7384 18.6598 20.9985C18.6598 22.2586 17.6345 23.2837 16.3742 23.2837C15.1138 23.2837 14.0886 22.2586 14.0886 20.9985ZM17.136 29.3774C15.8757 29.3774 14.8504 28.3524 14.8504 27.0923C14.8504 25.8322 15.8757 24.8071 17.136 24.8071C18.3964 24.8071 19.4216 25.8322 19.4216 27.0923C19.4216 28.3524 18.3964 29.3774 17.136 29.3774ZM20.9454 18.7134C19.685 18.7134 18.6598 17.6883 18.6598 16.4282C18.6598 15.1681 19.685 14.1431 20.9454 14.1431C22.2057 14.1431 23.231 15.1681 23.231 16.4282C23.231 17.6883 22.2057 18.7134 20.9454 18.7134ZM27.0403 18.7134C25.78 18.7134 24.7547 17.6883 24.7547 16.4282C24.7547 15.1681 25.78 14.1431 27.0403 14.1431C28.3006 14.1431 29.3259 15.1681 29.3259 16.4282C29.3259 17.6883 28.3006 18.7134 27.0403 18.7134ZM31.6115 23.2837C30.3512 23.2837 29.3259 22.2586 29.3259 20.9985C29.3259 19.7384 30.3512 18.7134 31.6115 18.7134C32.8718 18.7134 33.8971 19.7384 33.8971 20.9985C33.8971 22.2586 32.8718 23.2837 31.6115 23.2837Z" fill="current"/>
</svg>
