<svg  viewBox="0 0 48 48" fill="current" xmlns="http://www.w3.org/2000/svg">
<circle cx="24" cy="24" r="23.25" stroke="black" stroke-width="1.5" fill="white"/>
<path d="M36.1875 12.625C35.7 12.625 35.375 12.95 35.375 13.4375V17.6625C33.1 13.6 28.7125 11 24 11C16.85 11 11 16.85 11 24C11 31.15 16.85 37 24 37C27.4125 37 30.6625 35.7 33.2625 33.2625C33.5875 32.9375 33.5875 32.45 33.2625 32.125C32.9375 31.8 32.45 31.8 32.125 32.125C29.85 34.2375 27.0875 35.375 24 35.375C17.6625 35.375 12.625 30.3375 12.625 24C12.625 17.6625 17.6625 12.625 24 12.625C28.3875 12.625 32.45 15.225 34.2375 19.125H29.6875C29.2 19.125 28.875 19.45 28.875 19.9375C28.875 20.425 29.2 20.75 29.6875 20.75H36.1875C36.675 20.75 37 20.425 37 19.9375V13.4375C37 12.95 36.675 12.625 36.1875 12.625Z" fill="current"/>
</svg>
