<svg  viewBox="0 0 64 22" fill="current" xmlns="http://www.w3.org/2000/svg">
<path d="M46.8774 22C46.4002 22 45.923 21.8871 45.5463 21.6451C44.8179 21.1773 44.8179 20.4029 45.5463 19.9351L59.4603 10.998L45.5463 2.06087C44.8179 1.59304 44.8179 0.8187 45.5463 0.350871C46.2746 -0.116957 47.4802 -0.116957 48.2085 0.350871L63.4537 10.143C64.1821 10.6108 64.1821 11.3851 63.4537 11.853L48.2085 21.6451C47.8318 21.8871 47.3546 22 46.8774 22Z" fill="current"/>
<path d="M60.8355 12.4259H2.59537C1.17657 12.4259 0 11.7778 0 10.9962C0 10.2146 1.17657 9.56641 2.59537 9.56641H60.8355C62.2543 9.56641 63.4309 10.2146 63.4309 10.9962C63.4309 11.7778 62.2543 12.4259 60.8355 12.4259Z" fill="current"/>
</svg>
